<?xml version="1.0" encoding="utf-8"?>
<!-- Generator: Adobe Illustrator 16.0.0, SVG Export Plug-In . SVG Version: 6.00 Build 0)  -->
<!DOCTYPE svg PUBLIC "-//W3C//DTD SVG 1.1//EN" "http://www.w3.org/Graphics/SVG/1.1/DTD/svg11.dtd">
<svg version="1.1" id="Layer_1" xmlns="http://www.w3.org/2000/svg" xmlns:xlink="http://www.w3.org/1999/xlink" x="0px" y="0px"
	 width="369.333px" height="176.668px" viewBox="139.167 303.166 369.333 176.668"
	 enable-background="new 139.167 303.166 369.333 176.668" xml:space="preserve">
<g>
	<text transform="matrix(0.4948 0 0 1 121.0049 509.3242)" fill="#F89727" font-family="'DINPro-Regular'" font-size="433.9124">&lt;</text>
</g>
<g>
	<text transform="matrix(-0.4948 0 0 -1 528.2207 275.8809)" fill="#F89727" font-family="'DINPro-Regular'" font-size="433.9124">&lt;</text>
</g>
<path fill="none" stroke="#F89727" stroke-width="12" stroke-miterlimit="10" d="M404.459,392.883
	c0,44.066-35.752,79.816-79.838,79.816c-44.068,0-79.793-35.75-79.793-79.816c0-44.09,35.725-79.788,79.793-79.788
	C368.707,313.095,404.459,348.793,404.459,392.883z"/>
<polygon fill="#F2F2F2" points="220.686,393.155 290.194,392.883 324.621,393.155 236.977,321.781 "/>
<polygon fill="#F89727" points="264.285,342.292 282.419,356.571 260.974,365.159 239.457,373.698 242.818,350.83 246.13,327.988 
	"/>
<rect x="317.504" y="335.987" fill="#F89727" width="13.398" height="64.134"/>
<rect x="317.504" y="386.702" fill="#F89727" width="49.537" height="13.419"/>
</svg>
