<?xml version="1.0" encoding="utf-8"?>
<!-- Generator: Adobe Illustrator 16.0.0, SVG Export Plug-In . SVG Version: 6.00 Build 0)  -->
<!DOCTYPE svg PUBLIC "-//W3C//DTD SVG 1.1//EN" "http://www.w3.org/Graphics/SVG/1.1/DTD/svg11.dtd">
<svg version="1.1" id="Layer_1" xmlns="http://www.w3.org/2000/svg" xmlns:xlink="http://www.w3.org/1999/xlink" x="0px" y="0px"
	 width="205.23px" height="179.595px" viewBox="196.5 259.667 205.23 179.595"
	 enable-background="new 196.5 259.667 205.23 179.595" xml:space="preserve">
<polygon fill="#F89727" points="401.73,439.262 265.364,439.262 265.364,259.667 356.775,259.667 401.73,305.904 "/>
<path fill="#F2F2F2" stroke="#F2F2F2" stroke-miterlimit="10" d="M302.993,334.301c0,20.635-16.755,37.34-37.385,37.34
	c-20.605,0-37.337-16.706-37.337-37.34c0-20.627,16.732-37.333,37.337-37.333C286.238,296.968,302.993,313.674,302.993,334.301z"/>
<path fill="#F2F2F2" stroke="#F89727" stroke-width="7" stroke-miterlimit="10" d="M293.843,334.301
	c0,15.582-12.651,28.196-28.193,28.196c-15.578,0-28.229-12.614-28.229-28.196c0-15.575,12.651-28.19,28.229-28.19
	C281.192,306.111,293.843,318.726,293.843,334.301z"/>
<path fill="#F89727" d="M215.55,394.275c-2.483,2.428-6.961,1.873-10.051-1.267l0,0c-3.077-3.101-3.637-7.654-1.164-10.036
	L237,350.599c2.482-2.405,6.918-1.851,10.073,1.266l0,0c3.069,3.143,3.583,7.629,1.124,10.035L215.55,394.275z"/>
</svg>
