<?xml version="1.0" encoding="utf-8"?>
<!-- Generator: Adobe Illustrator 16.0.0, SVG Export Plug-In . SVG Version: 6.00 Build 0)  -->
<!DOCTYPE svg PUBLIC "-//W3C//DTD SVG 1.1//EN" "http://www.w3.org/Graphics/SVG/1.1/DTD/svg11.dtd">
<svg version="1.1" id="Layer_1" xmlns="http://www.w3.org/2000/svg" xmlns:xlink="http://www.w3.org/1999/xlink" x="0px" y="0px"
	 width="165.987px" height="167.698px" viewBox="221.153 277.132 165.987 167.698"
	 enable-background="new 221.153 277.132 165.987 167.698" xml:space="preserve">
<polygon fill="#F89727" points="387.14,444.83 221.153,444.83 221.153,277.132 359.885,277.132 387.14,303.808 "/>
<rect x="239.586" y="357.901" fill="#F2F2F2" width="129.167" height="73.917"/>
<rect x="264.942" y="378.094" fill="#F89727" width="80.284" height="2.223"/>
<rect x="264.016" y="399.398" fill="#F89727" width="80.285" height="2.223"/>
<rect x="264.016" y="389.024" fill="#F89727" width="80.285" height="2.223"/>
<rect x="264.016" y="409.031" fill="#F89727" width="80.285" height="2.223"/>
<path fill="#F2F2F2" d="M354.373,317.887c0,9.216-7.504,16.672-16.673,16.672h-65.208c-9.193,0-16.673-7.456-16.673-16.672l0,0
	c0-9.17,7.48-16.673,16.673-16.673H337.7C346.869,301.214,354.373,308.717,354.373,317.887L354.373,317.887z"/>
<rect x="328.044" y="304.92" fill="#F89727" width="12.597" height="25.935"/>
</svg>
